<svg xmlns="http://www.w3.org/2000/svg" xml:space="preserve" width="800" height="800" viewBox="0 0 25.924 25.924">
	<path d="M4.699 2.278A4.704 4.704 0 0 0 0 6.977c0 2.593 2.107 4.698 4.699 4.698s4.7-2.106 4.699-4.698a4.704 4.704 0 0 0-4.699-4.699zm0 7.049a2.353 2.353 0 0 1-2.35-2.35c0-1.294 1.055-2.35 2.35-2.35s2.35 1.055 2.35 2.35a2.353 2.353 0 0 1-2.35 2.35zm16.625 10.644c-3.91 0-6.227-2.463-6.227-6.369 0-4.342 2.721-6.456 6.195-6.456 1.592 0 2.836.349 3.703.725l.928-3.475c-.782-.435-2.52-.869-4.807-.869-5.904 0-10.652 3.678-10.652 10.336 0 5.558 3.475 9.783 10.221 9.783 2.346 0 4.198-.464 4.979-.841l-.637-3.473c-.896.377-2.344.639-3.703.639z"/>
</svg>