<svg xmlns="http://www.w3.org/2000/svg" width="800" height="800" viewBox="0 0 24 24">
    <path d="M7 15a5 5 0 0 1 10 0 1 1 0 0 1-2 0 3 3 0 0 0-6 0 1 1 0 0 1-2 0Zm11-4.586.707-.707a1 1 0 0 0-1.414-1.414L16.586 9A1 1 0 1 0 18 10.414ZM20 16h1a1 1 0 0 0 0-2h-1a1 1 0 0 0 0 2ZM4 14H3a1 1 0 0 0 0 2h1a1 1 0 0 0 0-2Zm1.293-4.293.707.707A1 1 0 1 0 7.414 9l-.707-.707a1 1 0 0 0-1.414 1.414ZM4 18a1 1 0 0 0 1 1h14a1 1 0 0 0 0-2H5a1 1 0 0 0-1 1Zm4 3a1 1 0 0 0 0 2h8a1 1 0 0 0 0-2Zm4-12a1 1 0 0 0 1-1V4.414l1.293 1.293a1 1 0 0 0 1.414-1.414l-3-3a1 1 0 0 0-1.416 0l-3 3a1 1 0 0 0 1.416 1.414L11 4.414V8a1 1 0 0 0 1 1Z"/>
</svg>